<?xml version="1.0" standalone="no"?>
<!DOCTYPE svg PUBLIC "-//W3C//DTD SVG 20010904//EN"
 "http://www.w3.org/TR/2001/REC-SVG-20010904/DTD/svg10.dtd">
<svg version="1.0" xmlns="http://www.w3.org/2000/svg"
 width="256.000000pt" height="256.000000pt" viewBox="0 0 256.000000 256.000000"
 preserveAspectRatio="xMidYMid meet">

<g transform="translate(0.000000,256.000000) scale(0.100000,-0.100000)"
fill="#000000" stroke="none">
<path d="M1160 2544 c-207 -44 -381 -222 -426 -433 -39 -187 15 -363 155 -501
228 -226 558 -226 781 -1 226 227 226 558 1 781 -143 142 -320 196 -511 154z"/>
<path d="M1127 1270 c-163 -26 -338 -96 -461 -184 -206 -148 -362 -387 -413
-634 -37 -181 41 -333 215 -415 l67 -32 710 -3 c503 -2 727 0 770 8 159 31
285 167 301 326 4 42 0 83 -14 144 -89 373 -380 667 -757 765 -112 29 -315 41
-418 25z"/>
</g>
</svg>
