<?xml version="1.0" encoding="UTF-8"?>
<svg version="1.1" xmlns="http://www.w3.org/2000/svg" width="256" height="256">
<path d="M0 0 C18.66926009 15.70471879 32.943605 37.08416361 36.9765625 61.50390625 C38.00913294 74.14551869 36.11991035 83.86777187 27.9140625 93.87890625 C21.76882999 100.28190858 13.21884447 105.20174417 4.20372677 105.63812733 C3.13029805 105.64240081 2.05686934 105.64667429 0.95091248 105.65107727 C-0.28398422 105.65823257 -1.51888092 105.66538788 -2.79119873 105.67276001 C-4.15710424 105.67560011 -5.52301002 105.67831186 -6.88891602 105.6809082 C-8.32976952 105.68717598 -9.77062142 105.69382306 -11.21147156 105.70082092 C-15.94175091 105.72183281 -20.67203046 105.73222315 -25.40234375 105.7421875 C-27.03408258 105.74623664 -28.66582125 105.75035361 -30.29755974 105.75453758 C-37.96755587 105.77358586 -45.63754241 105.78781558 -53.30755764 105.79614955 C-62.14312999 105.80590983 -70.97845101 105.8321991 -79.81393486 105.87265044 C-86.654048 105.90288459 -93.49408941 105.91762547 -100.33426803 105.92093056 C-104.41418269 105.92327345 -108.49382875 105.93213344 -112.57367134 105.95739174 C-116.41758181 105.98080464 -120.26104939 105.98485323 -124.10501289 105.97463036 C-125.50817342 105.97413802 -126.91135674 105.98036848 -128.31444931 105.9941864 C-141.31451556 106.11494616 -151.4544783 103.64300986 -161.0234375 94.50390625 C-168.95777167 85.98512336 -171.77661996 76.98092995 -171.39453125 65.4140625 C-168.88001181 38.91896823 -152.54603393 15.15257364 -132.5703125 -1.546875 C-93.19893106 -30.67366229 -38.64974681 -30.13456512 0 0 Z " fill="#ED6B16" transform="translate(195.0234375,150.49609375)"/>
<path d="M0 0 C10.11697974 8.26852667 18.34450763 20.85157019 20 34 C21.60315347 52.64500887 18.10814817 67.63214606 6.04296875 82.39453125 C-3.51530893 92.80400991 -16.52087599 99.43495216 -30.6015625 100.34375 C-47.37979153 101.04021699 -61.08164045 97.10185371 -74.20703125 86.16015625 C-84.04229629 76.96427746 -91.76851586 63.46345609 -92.2734375 49.76171875 C-92.78984424 31.60831257 -88.48945086 16.98224983 -75.9375 3.3125 C-54.81055624 -16.73470217 -22.8518064 -17.68593494 0 0 Z " fill="#EC6B16" transform="translate(164,12)"/>
<path d="M0 0 C18.66926009 15.70471879 32.943605 37.08416361 36.9765625 61.50390625 C38.00913294 74.14551869 36.11991035 83.86777187 27.9140625 93.87890625 C21.76882999 100.28190858 13.21884447 105.20174417 4.20372677 105.63812733 C3.13029805 105.64240081 2.05686934 105.64667429 0.95091248 105.65107727 C-0.28398422 105.65823257 -1.51888092 105.66538788 -2.79119873 105.67276001 C-4.15710424 105.67560011 -5.52301002 105.67831186 -6.88891602 105.6809082 C-8.32976952 105.68717598 -9.77062142 105.69382306 -11.21147156 105.70082092 C-15.94175091 105.72183281 -20.67203046 105.73222315 -25.40234375 105.7421875 C-27.03408258 105.74623664 -28.66582125 105.75035361 -30.29755974 105.75453758 C-37.96755587 105.77358586 -45.63754241 105.78781558 -53.30755764 105.79614955 C-62.14312999 105.80590983 -70.97845101 105.8321991 -79.81393486 105.87265044 C-86.654048 105.90288459 -93.49408941 105.91762547 -100.33426803 105.92093056 C-104.41418269 105.92327345 -108.49382875 105.93213344 -112.57367134 105.95739174 C-116.41758181 105.98080464 -120.26104939 105.98485323 -124.10501289 105.97463036 C-125.50817342 105.97413802 -126.91135674 105.98036848 -128.31444931 105.9941864 C-141.31451556 106.11494616 -151.4544783 103.64300986 -161.0234375 94.50390625 C-168.95777167 85.98512336 -171.77661996 76.98092995 -171.39453125 65.4140625 C-168.88001181 38.91896823 -152.54603393 15.15257364 -132.5703125 -1.546875 C-93.19893106 -30.67366229 -38.64974681 -30.13456512 0 0 Z M-132.0234375 20.50390625 C-132.83941406 21.30828125 -133.65539062 22.11265625 -134.49609375 22.94140625 C-145.96245287 34.89946173 -155.57555696 53.12254309 -155.296875 70.06640625 C-154.51502964 77.03599919 -151.25017763 81.9573035 -145.90234375 86.3125 C-141.67793604 88.99117849 -138.03049131 89.75577174 -133.06062317 89.77806091 C-131.86497742 89.78803604 -130.66933167 89.79801117 -129.43745422 89.80828857 C-127.48225105 89.80928558 -127.48225105 89.80928558 -125.48754883 89.81030273 C-124.09418292 89.81792848 -122.70082121 89.8263567 -121.3074646 89.83552551 C-117.52827597 89.85744096 -113.74916825 89.86626582 -109.96992326 89.87135196 C-107.60540899 89.87500009 -105.24091576 89.88124263 -102.87640953 89.88835335 C-94.61738534 89.91284098 -86.35842386 89.92589752 -78.09936523 89.92944336 C-70.41771811 89.93307451 -62.73647153 89.96294117 -55.05494672 90.00484794 C-48.4475118 90.03962279 -41.84020911 90.05499307 -35.23268336 90.05568939 C-31.29193082 90.05647999 -27.35158619 90.06511726 -23.41092873 90.09368706 C-19.69987335 90.11999063 -15.98956041 90.12200558 -12.27845383 90.10603142 C-10.281276 90.10337135 -8.28411184 90.12531836 -6.2870636 90.14822388 C2.12961665 90.08029431 9.18375049 88.81362403 15.62037945 83.02577877 C19.83472338 78.29655419 21.52666815 73.7414709 21.34765625 67.40234375 C19.20108587 50.63649931 11.25232163 34.93771632 -0.0234375 22.50390625 C-0.81105469 21.611875 -1.59867188 20.71984375 -2.41015625 19.80078125 C-11.69181447 9.86704838 -23.84789554 1.32129253 -37.0234375 -2.49609375 C-37.62784668 -2.67366211 -38.23225586 -2.85123047 -38.85498047 -3.03417969 C-72.68705943 -12.64031942 -107.14950187 -4.33553017 -132.0234375 20.50390625 Z " fill="#352E39" transform="translate(195.0234375,150.49609375)"/>
<path d="M0 0 C10.11697974 8.26852667 18.34450763 20.85157019 20 34 C21.60315347 52.64500887 18.10814817 67.63214606 6.04296875 82.39453125 C-3.51530893 92.80400991 -16.52087599 99.43495216 -30.6015625 100.34375 C-47.37979153 101.04021699 -61.08164045 97.10185371 -74.20703125 86.16015625 C-84.04229629 76.96427746 -91.76851586 63.46345609 -92.2734375 49.76171875 C-92.78984424 31.60831257 -88.48945086 16.98224983 -75.9375 3.3125 C-54.81055624 -16.73470217 -22.8518064 -17.68593494 0 0 Z M-67.3125 18.3125 C-75.53739872 28.02836642 -76.91780131 38.57034799 -76 51 C-73.6476119 62.84696655 -66.77162255 72.04607267 -57 79 C-47.24882137 84.37376511 -36.6742809 85.52384047 -25.734375 83.3515625 C-14.84279668 80.084089 -5.25615114 72.72316788 0.28515625 62.66796875 C4.95102226 52.5836777 5.64334578 41.37365261 2.4375 30.6875 C-1.49595986 20.3086866 -9.57144436 11.30556306 -19.6875 6.625 C-36.82589907 -0.58127383 -54.98789536 5.26024343 -67.3125 18.3125 Z " fill="#352E39" transform="translate(164,12)"/>
</svg>
